<svg width="521" height="588" viewBox="0 0 521 588" fill="none" xmlns="http://www.w3.org/2000/svg">
<path fill-rule="evenodd" clip-rule="evenodd" d="M439.7 0H472.3C463.6 14.8 456.9 30.8 453.6 47.7C447.5 78.3 443.1 109.3 439.7 140.4C437 171.5 430.9 202.6 417.7 231.1C409.9 247.8 402.2 264.7 392.8 280.6C384.1 295.2 371.9 307.2 360.9 320C399.8 308.9 433.3 283.2 458.3 251.9C471.6 233.7 477.1 211.3 482.7 189.8C489.8 162.6 490.5 133.8 484.8 106.2C481.7 100.2 473.8 103.1 471 107.7C462 120.6 458.2 136.3 451.2 150.3C452.7 116.4 457.3 82.7 463.7 49.4C466.5 33 475.3 18.6 486.2 6.3C486.4 20.2 485.1 34.1 487.1 47.9C491.9 73.1 504.9 95.5 513.9 119.2C524.3 155.4 521.1 194 513.9 230.5C497 287.9 457.4 338 406.2 368.7C373 388.3 338.1 405 304.3 423.6C204.1 478 104.7 533.5 4.5 587.7H0C4.3 573.7 8.6 559.6 15.8 546.7C31.7 517.3 49.5 488.9 67 460.5C73.5 450 80.5 439.7 88.5 430.2C91.2 452.7 90.7 475.5 91.9 498.1C146.6 463.2 201.2 427.9 255.3 392C227.2 383.2 195.4 375.3 176.9 350.3C163.8 327.6 171.1 300.7 179.4 277.6C169.1 273.5 158.8 268.4 147.4 268.9C128.5 269 111.7 279.5 97 290.4C81.8 301.5 72.4 318.3 58.3 330.7C49.1 309 41.5 286.2 39.8 262.5C38.9 240.4 40.3 218 45.8 196.5C52.4 174.5 65 154 82.8 139.3C103.1 122.8 125.3 107.9 150.8 100.9C173.3 92.5 197.5 90.7 220.4 84.2C241.9 77.7 251.7 55.6 266.1 40.4C275.1 55.4 272.2 73.5 270.4 90C268.3 109 258.9 125.8 249.4 141.9C260.9 127.9 272.4 112.6 275.7 94.3C278.9 78.2 279.7 61.6 283.5 45.6C303.7 61.5 307.4 89.8 305.7 113.8C301.5 144.9 286.4 172.9 272.9 200.7C289.2 181.6 303.1 159.4 307.6 134.3C311.8 112.4 316.1 90.5 322.2 69C325.3 58.7 328.9 48.2 336.5 40.3C354.8 21.6 378.2 4.2 405.8 5.7C396.4 22.8 381.7 37.7 378.4 57.7C375 78 377.4 98.9 374 119.3C371.8 150 362.7 179.5 353.2 208.6C346.6 229.2 332 245.7 319 262.5C328.9 253.8 337.6 243.8 344.9 232.7C353 220.2 362.3 208.1 367.3 193.9C379 156.3 381.2 116.8 388.3 78.3C391.5 60.9 393.7 42.9 401.2 26.7C408.4 11.7 425.1 5.5 439.7 0Z" fill="#FF0000"/>
</svg>
