<?xml version="1.0" encoding="utf-8" ?>
<svg xmlns="http://www.w3.org/2000/svg" xmlns:xlink="http://www.w3.org/1999/xlink" width="896" height="896">
	<path d="M428.434 174.159C428.899 175.419 429.353 176.663 429.713 177.957L430.204 178.027L431.139 176.703C431.363 179.69 431.404 182.681 431.465 185.675C431.318 185.518 431.163 185.368 431.023 185.205C430.161 184.193 430.082 182.452 429.879 181.183C429.706 183.365 429.634 185.593 429.116 187.725C428.321 183.281 428.36 178.659 428.434 174.159Z"/>
	<path d="M499.575 741.113C499.938 740.22 500.361 739.431 500.852 738.602C499.924 752.407 501.575 767.459 500.126 780.972C499.447 776.362 499.858 771.383 499.829 766.712L499.575 741.113Z"/>
	<path d="M275.054 277.178C276.987 277.953 280.095 279.013 281.094 281.038C281.698 282.262 281.432 282.789 281.035 283.981C280.266 284.577 279.533 284.922 278.64 285.302C277.977 285.209 277.516 285.285 277.002 284.801C275.302 283.2 275.322 279.39 275.054 277.178Z"/>
	<path d="M393.154 195C392.314 190.809 389.835 180.559 392.147 177.013L392.954 176.981C393.908 178.005 394.216 178.86 394.628 180.153L394.578 180.707C394.252 184.629 395.304 192.065 394.666 194.939C393.881 194.712 394.193 194.885 393.686 194.509L393.154 195Z"/>
	<path d="M255.916 299.617C256.313 299.641 256.841 299.658 257.219 299.749C258.298 300.008 258.534 300.093 259.088 301.035C259.019 301.47 259.005 301.755 258.774 302.171C257.457 304.552 254.249 306.034 251.864 307.122C251.407 307.202 250.72 307.377 250.24 307.341C249.214 307.263 248.954 307.261 248.355 306.449C248.381 306.286 248.385 306.117 248.432 305.958C249.236 303.254 253.527 300.913 255.916 299.617Z"/>
	<path d="M394.628 180.153C396.248 186.928 395.651 194.106 397.009 200.936L396.312 201.171L396.2 200.682L395.278 201.391L395.61 200.278C394.638 203.363 398.211 207.971 398.521 211.149C394.445 207.25 394.006 200.316 393.154 195L393.686 194.509C394.193 194.885 393.881 194.712 394.666 194.939C395.304 192.065 394.252 184.629 394.578 180.707L394.628 180.153Z"/>
	<defs>
		<linearGradient id="gradient_0" gradientUnits="userSpaceOnUse" x1="215.53391" y1="341.20859" x2="210.21269" y2="341.81229">
			<stop offset="0" stop-color="black" stop-opacity="0.96078432"/>
			<stop offset="1" stop-color="black"/>
		</linearGradient>
	</defs>
	<path fill="url(#gradient_0)" d="M210.77 337.282C212.084 338.939 213.53 341.464 215.789 341.763C216.892 341.909 217.745 341.378 218.675 340.825L219.3 341.389C214.817 344.671 210.87 348.921 206.949 352.851C207.923 351.398 208.977 349.901 209.754 348.336C210.952 345.923 210.696 344.137 209.809 341.691C210.071 340.203 210.412 338.749 210.77 337.282Z"/>
	<path d="M428.434 174.159C433.719 171.146 442.817 172.392 448.707 172.553L448.33 172.637C447.006 172.92 443.733 173.622 442.512 173.071C444.71 172.485 446.794 172.852 448.926 173.545C447.727 174.4 443.325 174.158 441.755 174.19C441.99 174.245 442.225 174.298 442.458 174.356C443.302 174.568 443.011 174.403 443.502 174.794C439.636 175.198 434.52 174.617 431.139 176.703L430.204 178.027L429.713 177.957C429.353 176.663 428.899 175.419 428.434 174.159Z"/>
	<path d="M93.6235 849.948C94.884 847.047 93.6919 841.755 93.6675 838.469C93.6276 833.086 93.4591 805.409 94.8391 802.821C95.0687 802.39 95.5269 802.128 95.8708 801.782Q95.1532 807.028 95.0629 812.321C94.9483 817.931 95.7449 848.175 94.8187 850.259C94.4695 850.176 93.9399 850.106 93.6235 849.948Z"/>
	<defs>
		<linearGradient id="gradient_1" gradientUnits="userSpaceOnUse" x1="246.92075" y1="293.23132" x2="245.09366" y2="290.86517">
			<stop offset="0" stop-color="black" stop-opacity="0.96862745"/>
			<stop offset="1" stop-color="black"/>
		</linearGradient>
	</defs>
	<path fill="url(#gradient_1)" d="M248.601 287.879C249.826 287.893 251.065 288.185 252.111 288.821C252.428 289.552 252.52 289.393 252.345 290.049C251.541 293.051 247.308 294.932 244.771 296.197C243.469 296.287 242.404 296.062 241.245 295.482C241.056 294.87 240.841 294.639 241.105 294.002C242.326 291.056 245.885 289.219 248.601 287.879Z"/>
	<path d="M210.673 324.586C216.7 328.428 222.142 332.133 229.224 333.709Q223.963 337.162 219.3 341.389L218.675 340.825C219.794 339.844 220.655 339.208 221.055 337.703C220.753 332.879 213.876 327.958 210.673 324.586Z"/>
	<path d="M288.342 288.679C289.215 288.954 289.942 289.109 290.644 289.724C291.145 290.163 291.012 290.402 291.06 291.016C289.259 294.285 283.506 296.602 280.281 298.383C279.771 298.752 279.364 298.848 278.767 299.023C278.035 297.745 278.352 296.05 278.381 294.577C281.457 292.134 284.815 290.377 288.342 288.679Z"/>
	<path d="M416.493 204.386C415.773 197.807 412.276 179.246 413.57 174.191L414.074 174.056C418.278 178.734 418.466 195.867 419.087 202.375C418.55 201.614 418.018 200.854 417.447 200.118C417.463 200.256 417.481 200.394 417.495 200.532C417.644 202.01 417.501 202.79 416.957 204.165L416.493 204.386Z"/>
	<defs>
		<linearGradient id="gradient_2" gradientUnits="userSpaceOnUse" x1="448.76913" y1="187.724" x2="448.64258" y2="173.7054">
			<stop offset="0" stop-color="black" stop-opacity="0.95294118"/>
			<stop offset="1" stop-color="black"/>
		</linearGradient>
	</defs>
	<path fill="url(#gradient_2)" d="M448.707 172.553C449.979 172.596 450.966 172.481 451.951 173.466C452.581 174.096 453.084 174.94 453.594 175.669L453.951 176.175C454.022 176.276 454.091 176.379 454.161 176.481C454.137 180.977 454.005 185.524 454.287 190.011C454.518 193.681 455.242 197.588 454.964 201.248C454.86 202.619 454.563 204.071 453.761 205.199C451.962 204.061 454.564 199.751 453.546 197.729L453.103 197.936L453.148 200.476C452.584 200.849 452.035 201.233 451.485 201.628C452.009 199.488 452.354 197.623 452.325 195.395C452.431 195.24 452.549 195.092 452.643 194.929C453.784 192.972 452.507 189.885 452.056 187.78L451.211 187.398C451.546 184.426 452.352 179.955 450.399 177.432C448.722 175.267 446.006 175.096 443.502 174.794C443.011 174.403 443.302 174.568 442.458 174.356C442.225 174.298 441.99 174.245 441.755 174.19C443.325 174.158 447.727 174.4 448.926 173.545C446.794 172.852 444.71 172.485 442.512 173.071C443.733 173.622 447.006 172.92 448.33 172.637L448.707 172.553Z"/>
	<path d="M314.068 841.93C313.977 841.852 313.872 841.787 313.795 841.694C313.779 841.676 313.262 840.899 313.247 840.849C312.369 838.134 312.975 764.573 313.031 756.439C313.041 754.977 312.785 754.391 313.866 753.331C314.121 753.869 314.343 754.117 314.299 754.721C313.756 762.064 314.134 769.695 314.12 777.066L314.145 820.611C314.163 827.442 314.905 835.192 314.068 841.93Z"/>
	<defs>
		<linearGradient id="gradient_3" gradientUnits="userSpaceOnUse" x1="186.93869" y1="355.86206" x2="192.38571" y2="365.37424">
			<stop offset="0" stop-color="black" stop-opacity="0.96862745"/>
			<stop offset="1" stop-color="black"/>
		</linearGradient>
	</defs>
	<path fill="url(#gradient_3)" d="M179.355 357.305C180.21 357.142 180.951 356.874 181.775 356.593C182.273 356.974 182.135 356.779 182.407 357.333C182.47 357.461 182.524 357.593 182.583 357.724L183.363 357.653L183.335 356.703L183.483 357.118L183.15 357.787L182.759 357.878L183.398 356.847C181.799 353.89 178.556 351.597 176.692 348.65C174.694 345.49 174.346 342.821 175.102 339.221C175.805 346.282 180.312 352.006 185.665 356.456C188.97 359.203 192.1 360.674 196.395 361.139L201.909 358.166C197.728 361.815 193.551 365.47 189.783 369.555C186.06 373.59 182.681 378.047 178.82 381.933L178.47 381.458C183.207 376.217 187.068 370.823 189.377 364.114C186.55 360.725 183.361 358.951 179.355 357.305Z"/>
	<path d="M189.839 332.879C193.576 335.027 199.118 339.585 201.192 343.44C201.863 344.688 202.226 346.25 201.633 347.611C200.587 350.01 197.92 351.003 195.707 352.059C191.601 350.813 185.846 345.287 183.796 341.528C183.212 340.458 182.921 339.355 183.4 338.18C184.479 335.528 187.481 334.182 189.839 332.879Z"/>
	<path d="M347.653 186.937C348.481 186.844 348.808 186.884 349.591 187.067C349.381 189.556 335.269 192.745 332.715 196.088C331.788 197.301 331.992 197.782 332.21 199.203C332.983 204.236 336.457 217.804 340.574 220.506C344.615 223.157 352.411 218.497 356.69 217.746C357.713 217.567 358.218 217.589 359.051 218.238L359.131 220.351C358.694 220.719 358.241 221.049 357.747 221.338C353.816 223.634 345.457 226.111 341.028 224.777C338.073 223.887 336.139 221.583 334.83 218.891C331.755 212.568 328.408 200.246 330.772 193.44C334.911 189.024 341.95 187.972 347.653 186.937Z"/>
	<path d="M560.379 663.607C560.541 663.603 560.703 663.592 560.865 663.595C569.784 663.725 581.965 667.924 588.175 674.537C590.049 676.532 591.44 678.835 592.599 681.299C595.222 686.877 596.58 693.025 598.71 698.803C599.945 702.153 601.881 705.272 602.845 708.707C603.154 709.806 603.207 710.912 603.179 712.045C592.932 712.083 592.953 696.519 585.424 690.262C580.474 686.149 573.375 687.476 568.575 683.358C564.901 680.206 564.568 675.74 563.074 671.495C562.142 668.847 560.587 666.446 560.379 663.607Z"/>
	<path d="M295.415 663.244C304.639 663.721 316.242 666.706 323.355 672.908Q324.229 673.658 325.025 674.49Q325.821 675.322 326.531 676.229Q327.241 677.135 327.858 678.107Q328.475 679.08 328.993 680.108C330.648 683.376 339.014 708.675 339.207 711.844C338.211 711.926 336.652 712.212 335.73 711.794C330.057 709.22 326.011 693.401 319.645 688.83C315.61 685.932 308.684 685.13 303.911 683.689C300.373 677.354 297.605 670.153 295.415 663.244Z"/>
	<path d="M160.289 291.353C162.389 291.25 164.2 291.5 166.137 292.373C172.704 295.333 180.685 303.735 183.052 310.547C184.108 313.586 184.09 316.71 182.651 319.624C180.618 323.742 176.193 326.729 171.937 328.182C170.856 328.186 169.792 328.173 168.735 327.918C161.836 326.254 153.684 317.026 150.096 311.264C148.716 309.047 147.495 306.309 148.226 303.66C149.684 298.376 155.813 294.061 160.289 291.353ZM161.63 294.967C158.294 296.168 154.399 298.711 152.876 302.012C151.864 304.205 151.925 306.553 152.79 308.782C154.979 314.421 162.019 321.548 167.639 323.804C168.53 324.162 169.453 324.368 170.395 324.539C173.674 323.331 177.653 320.733 179.162 317.491C180.184 315.295 180.018 313.003 179.086 310.81C176.909 305.69 169.509 297.213 164.137 295.419C163.321 295.146 162.48 295.061 161.63 294.967Z"/>
	<path d="M313.866 753.331C320.163 753.478 326.541 753.391 332.818 753.882C332.058 762.181 332.401 770.659 332.393 778.988Q332.23 797.589 332.413 816.19C332.495 826.668 331.549 841.161 333.092 851.26C325.717 850.089 320.612 844.885 314.068 841.93C314.905 835.192 314.163 827.442 314.145 820.611L314.12 777.066C314.134 769.695 313.756 762.064 314.299 754.721C314.343 754.117 314.121 753.869 313.866 753.331Z"/>
	<path d="M576.614 753.392C581.365 753.399 592.197 752.456 596.26 754.082C596.237 764.247 597.348 850.323 596.39 851.649C589.601 849.327 583.173 845.503 576.903 842.059C575.721 835.589 576.07 820.712 576.536 813.599C575.734 793.67 576.163 773.33 576.614 753.392ZM596.39 851.649C597.348 850.323 596.237 764.247 596.26 754.082C595.709 755.261 595.369 756.373 595.295 757.682C594.871 765.239 595.215 849.5 595.65 850.501C595.921 851.125 596.007 851.177 596.39 851.649ZM576.903 842.059C578.515 835.38 578.038 820.343 576.536 813.599C576.07 820.712 575.721 835.589 576.903 842.059Z"/>
	<path d="M576.903 842.059C575.721 835.589 576.07 820.712 576.536 813.599C578.038 820.343 578.515 835.38 576.903 842.059Z"/>
	<path d="M596.39 851.649C596.007 851.177 595.921 851.125 595.65 850.501C595.215 849.5 594.871 765.239 595.295 757.682C595.369 756.373 595.709 755.261 596.26 754.082C596.237 764.247 597.348 850.323 596.39 851.649Z"/>
	<path d="M251.98 754.437C257.916 754.135 264.217 754.799 269.853 756.739C277.317 759.309 284.873 764.635 288.227 771.979C290.36 776.651 290.692 781.826 288.685 786.598C285.241 794.782 275.414 801.723 267.441 804.959C261.141 801.466 254.9 793.413 250.656 787.67C258.013 785.184 266.034 781.853 270.664 775.249C272.229 773.018 273.225 770.294 272.649 767.552C272.1 764.938 270.25 762.883 268.02 761.514C263.128 758.512 256.66 758.339 251.182 759.616C237.901 762.714 228.202 773.96 221.361 785.055Q220.36 786.599 219.506 788.228Q218.652 789.858 217.951 791.559Q217.25 793.26 216.708 795.019Q216.167 796.777 215.789 798.578C213.547 809.058 213.637 843.413 215.222 853.785C207.535 850.456 200.081 846.518 192.622 842.711C191.841 832.461 192.449 821.847 192.452 811.564Q192.225 785.009 192.585 758.456C200.058 758.257 207.655 757.947 215.115 758.463C215.288 761.182 215.799 763.735 216.371 766.391C228.041 759.908 238.505 755.43 251.98 754.437Z"/>
	<path d="M661.702 170.616C669.194 172.987 676.368 177.458 683.233 181.227L711.23 196.763C721.995 202.762 734.691 208.39 744.422 215.868C737.044 224.623 728.653 232.481 720.739 240.749Q703.818 258.594 687.279 276.793C681.501 283.25 675.367 289.41 669.352 295.646C662.883 293.344 656.788 289.083 650.591 286.057C641.696 281.712 632.469 278.111 623.492 273.951C625.705 264.688 630.485 254.157 633.852 245.147L651.359 198.25C654.835 189.026 658.612 179.985 661.702 170.616Z"/>
	<path d="M701.425 47.92C707.892 50.1683 714.123 54.1639 720.154 57.4254Q736.297 65.9942 752.29 74.8382L810.855 106.595C821.41 112.39 832.448 117.687 842.23 124.735C834.281 132.498 826.734 140.783 819.007 148.774L776.987 191.943C769.568 200.165 761.706 208.232 753.359 215.519C738.372 207.674 723.864 198.922 709.001 190.842C692.193 181.705 674.804 173.1 658.493 163.143C665.065 142.971 672.846 123.25 680.31 103.398C687.285 84.844 693.884 66.2646 701.425 47.92Z"/>
	<path d="M429.116 187.725C429.634 185.593 429.706 183.365 429.879 181.183C430.082 182.452 430.161 184.193 431.023 185.205C431.163 185.368 431.318 185.518 431.465 185.675C431.528 185.841 431.594 186.007 431.655 186.174C431.872 186.772 432.018 187.348 432.157 187.967C434.445 189.695 446.662 188.012 450.066 187.567Q450.639 187.489 451.211 187.398L452.056 187.78C452.507 189.885 453.784 192.972 452.643 194.929C452.549 195.092 452.431 195.24 452.325 195.395C452.354 197.623 452.009 199.488 451.485 201.628C452.035 201.233 452.584 200.849 453.148 200.476L453.103 197.936L453.546 197.729C454.564 199.751 451.962 204.061 453.761 205.199L453.21 207.373C453.789 207.973 455.961 207.792 456.847 207.808C471.726 208.077 486.578 207.387 501.468 208.093C537.818 209.815 581.61 217.878 615.826 230.558Q612.153 241.361 608.636 252.216C607.035 257.212 605.633 262.39 603.678 267.255Q600.121 266.016 596.541 264.847Q592.961 263.679 589.358 262.58Q585.756 261.482 582.132 260.454Q578.509 259.427 574.866 258.471Q571.223 257.514 567.562 256.63Q563.901 255.745 560.224 254.933Q556.546 254.12 552.854 253.38Q549.161 252.639 545.454 251.972Q541.748 251.304 538.029 250.709Q534.31 250.114 530.58 249.592Q526.85 249.07 523.11 248.622Q519.371 248.173 515.623 247.798Q511.876 247.423 508.122 247.121Q504.368 246.819 500.608 246.592Q496.849 246.364 493.086 246.21Q489.323 246.055 485.557 245.975Q481.792 245.895 478.026 245.889Q474.259 245.882 470.494 245.95Q466.728 246.017 462.964 246.158Q459.201 246.3 455.441 246.515Q451.681 246.73 447.925 247.019Q444.17 247.308 440.422 247.67Q436.673 248.033 432.932 248.468Q429.191 248.904 425.459 249.414Q421.728 249.923 418.007 250.505Q414.286 251.087 410.577 251.742Q406.868 252.398 403.173 253.125Q399.477 253.853 395.797 254.653Q392.117 255.453 388.453 256.326Q384.789 257.198 381.143 258.142Q377.497 259.086 373.87 260.101Q370.243 261.116 366.637 262.202Q349.456 267.221 332.702 273.521C326.488 275.894 320.392 278.684 314.143 280.938C313.479 276.888 312.089 272.305 312.024 268.239C311.934 262.624 314.914 251.107 313.387 246.47C312.38 245.873 311.242 245.976 310.137 246.273C308.346 246.755 307.357 247.943 306.507 249.517C304.515 253.212 304.262 257.495 302.569 261.265C299.051 258.863 293.395 254.202 288.947 254.905C287.925 255.066 287.249 255.546 286.696 256.418C286.261 257.105 286.199 257.56 286.187 258.339C289.152 265.353 299.041 268.43 303.505 274.352C305.344 276.791 306.65 280.694 307.553 283.627C304.749 285.325 301.92 286.785 298.775 287.756C295.772 281.768 278.744 269.249 272.759 264.602C270.816 265.509 269.031 266.353 267.339 267.702C266.174 279.628 268.521 292 271.213 303.609C269.302 305.053 267.243 306.916 265.12 307.982C265.514 307.377 265.833 306.99 266.287 306.456C267.217 305.363 267.978 303.879 267.797 302.393C266.976 295.654 257.384 281.765 251.788 277.724C243.985 280.184 235.495 284.973 229.623 290.706C233.738 297.91 242.1 312.338 247.959 317.753Q250.92 316.705 253.899 315.707C246.619 320.455 239.734 325.661 232.747 330.82C233.439 323.887 229.57 318.583 227.919 312.108C228.059 312.243 228.201 312.376 228.34 312.513C231.343 315.459 234.752 324.478 239.283 324.121C241.042 323.983 242.567 322.198 243.777 321.048C241.573 315.782 229.868 297.999 224.669 296.423C223.215 295.983 222.03 296.285 220.751 297.024C219.037 298.015 217.442 299.377 215.877 300.589C219.488 307.246 222.473 315.938 223.89 323.371C221.969 322.386 220.117 321.396 218.392 320.082C214.404 317.043 207.431 309.267 202.01 311.263C200.09 311.97 199.34 313.66 198.364 315.309C200.413 323.582 205.781 330.54 210.77 337.282C210.412 338.749 210.071 340.203 209.809 341.691C204.663 334.123 198.267 327.377 189.717 323.757Q188.491 324.4 187.293 325.093C181.661 328.375 176.804 332.751 175.102 339.221C174.346 342.821 174.694 345.49 176.692 348.65C178.556 351.597 181.799 353.89 183.398 356.847L182.759 357.878L183.15 357.787L183.483 357.118L183.335 356.703L183.363 357.653L182.583 357.724C182.524 357.593 182.47 357.461 182.407 357.333C182.135 356.779 182.273 356.974 181.775 356.593C180.951 356.874 180.21 357.142 179.355 357.305C183.361 358.951 186.55 360.725 189.377 364.114C187.068 370.823 183.207 376.217 178.47 381.458L178.82 381.933C129.184 442.61 97.9597 502.996 86.1036 581.274C82.9416 602.151 81.0543 622.891 81.349 644.006C77.2185 644.245 73.0828 644.543 68.9444 644.569C86.6274 669.557 93.5176 695.092 95.4931 725.146C103.069 725.815 110.819 725.482 118.421 725.476L152.487 725.599L271.906 725.505L338.362 725.446C349.414 725.455 361.502 726.624 372.389 724.929C372.416 712.291 372.206 699.623 372.388 686.99C378.088 689.54 389.788 695.659 392.192 701.411C394.867 707.81 389.987 716.649 393.255 724.298C404.485 726.226 416.449 725.617 427.834 725.687C445.157 725.793 462.521 726.139 479.805 724.804C480.508 712.253 480.283 699.796 480.459 687.24C487.741 690.522 494.284 695.22 500.577 700.093C500.531 708.427 500.366 716.781 500.562 725.113C522.189 726.256 544.179 725.365 565.858 725.371L598.237 725.386C606.646 725.394 615.026 725.571 623.417 724.879C623.292 692.898 614.176 668.244 592.206 644.823C577.144 643.546 561.679 644.215 546.554 644.231L472.74 644.24L231.432 644.438L151.423 644.296C136.984 644.253 122.393 644.735 107.982 643.93C106.989 628.51 108.966 612.367 110.83 597.074Q111.232 593.618 111.7 590.17Q112.168 586.723 112.702 583.285Q113.235 579.846 113.834 576.419Q114.433 572.992 115.097 569.576Q115.761 566.161 116.49 562.759Q117.219 559.357 118.012 555.969Q118.806 552.582 119.664 549.21Q120.522 545.838 121.444 542.483Q122.366 539.128 123.351 535.792Q124.337 532.455 125.386 529.138Q126.435 525.82 127.547 522.523Q128.659 519.227 129.833 515.952Q131.008 512.677 132.245 509.424Q133.481 506.172 134.78 502.944Q136.078 499.717 137.438 496.514Q138.797 493.311 140.218 490.135Q141.638 486.959 143.118 483.81Q144.599 480.662 146.139 477.542Q147.679 474.422 149.279 471.332Q150.878 468.242 152.536 465.184Q154.194 462.125 155.909 459.098Q157.625 456.071 159.398 453.078Q161.172 450.084 163.001 447.125Q164.831 444.166 166.717 441.242Q168.603 438.318 170.544 435.43Q172.485 432.543 174.481 429.693Q176.476 426.843 178.526 424.031Q180.576 421.22 182.678 418.448Q184.781 415.676 186.936 412.945Q189.092 410.213 191.298 407.524Q193.505 404.834 195.763 402.186Q198.02 399.539 200.328 396.935Q203.307 393.557 206.368 390.254Q209.43 386.951 212.572 383.724Q215.713 380.497 218.933 377.349Q222.154 374.2 225.45 371.132Q228.747 368.064 232.118 365.077Q235.489 362.091 238.933 359.189Q242.377 356.286 245.891 353.469Q249.405 350.653 252.987 347.923Q256.57 345.194 260.218 342.553Q263.866 339.913 267.579 337.363Q271.291 334.813 275.065 332.355Q278.839 329.897 282.672 327.533Q286.505 325.169 290.396 322.9Q294.286 320.631 298.231 318.458Q302.176 316.286 306.173 314.211Q310.17 312.136 314.217 310.16Q318.264 308.184 322.359 306.308Q326.453 304.433 330.593 302.658Q334.732 300.884 338.914 299.212Q343.096 297.54 347.317 295.972Q351.539 294.403 355.798 292.939Q360.057 291.475 364.351 290.116Q368.645 288.757 372.971 287.504Q377.296 286.251 381.652 285.105Q386.007 283.959 390.39 282.921Q394.772 281.882 399.178 280.952Q403.585 280.022 408.013 279.2Q412.441 278.379 416.888 277.666Q421.335 276.954 425.798 276.351Q430.262 275.749 434.738 275.256Q439.215 274.763 443.702 274.381Q448.19 273.999 452.685 273.727Q457.21 273.419 461.741 273.222Q466.271 273.025 470.806 272.94Q475.34 272.855 479.875 272.882Q484.41 272.908 488.943 273.047Q493.476 273.186 498.005 273.436Q502.533 273.686 507.054 274.048Q511.574 274.41 516.085 274.883Q520.595 275.357 525.093 275.941Q529.59 276.525 534.072 277.22Q538.553 277.915 543.016 278.72Q547.479 279.526 551.921 280.441Q556.363 281.356 560.781 282.38Q565.199 283.404 569.591 284.537Q573.982 285.67 578.344 286.911Q582.706 288.152 587.036 289.5Q591.367 290.848 595.662 292.302Q599.958 293.756 604.216 295.316Q608.475 296.876 612.694 298.54Q616.912 300.205 621.089 301.973Q625.265 303.74 629.397 305.611Q633.528 307.481 637.612 309.453Q641.697 311.424 645.731 313.496Q649.765 315.567 653.747 317.738Q657.729 319.908 661.657 322.176Q665.584 324.444 669.454 326.809Q673.325 329.173 677.135 331.632Q680.946 334.09 684.695 336.642Q688.444 339.194 692.129 341.838Q695.814 344.482 699.433 347.216Q703.051 349.949 706.601 352.772Q710.151 355.594 713.631 358.502Q717.11 361.411 720.517 364.405Q723.394 366.965 726.217 369.585Q729.041 372.204 731.81 374.881Q734.579 377.558 737.292 380.291Q740.005 383.025 742.661 385.814Q745.317 388.603 747.915 391.446Q750.513 394.289 753.052 397.185Q755.59 400.081 758.069 403.029Q760.547 405.977 762.965 408.975Q765.382 411.973 767.737 415.021Q770.092 418.068 772.383 421.164Q774.674 424.259 776.902 427.401Q779.129 430.543 781.291 433.731Q783.452 436.918 785.548 440.149Q787.644 443.38 789.672 446.654Q791.701 449.928 793.661 453.243Q795.622 456.558 797.514 459.912Q799.406 463.267 801.228 466.66Q803.05 470.053 804.802 473.483Q806.553 476.913 808.234 480.378Q809.915 483.843 811.524 487.342Q813.133 490.841 814.669 494.373Q816.205 497.905 817.669 501.467Q819.132 505.03 820.521 508.622Q821.91 512.214 823.225 515.834Q824.54 519.453 825.78 523.1Q827.02 526.746 828.185 530.417Q829.35 534.088 830.438 537.782Q831.527 541.477 832.539 545.192Q833.551 548.908 834.486 552.644Q835.422 556.38 836.28 560.135Q837.138 563.89 837.918 567.661Q838.698 571.432 839.401 575.219C843.399 596.994 844.523 619.737 846.177 641.813C846.216 642.336 846.23 642.86 846.246 643.385C838.25 644.657 830.135 644.315 822.067 644.302L792.872 644.278L677.459 644.298L642.313 644.271C634.325 644.269 626.173 643.974 618.227 644.821C632.133 664.887 639.081 681.503 642.27 705.667C643.128 712.172 643.333 718.729 644.327 725.219C651.717 725.756 659.162 725.489 666.567 725.46L695.635 725.54L795.165 725.652C811.473 725.665 827.888 725.272 844.184 725.798L843.914 737.616C824.316 738.322 804.749 737.772 785.15 738.068C777.806 738.179 770.049 737.933 762.762 738.733L762.445 739.207C761.707 745.418 763.147 751.818 762.277 757.914L762.395 758.302L763.22 758.629L762.761 758.715C767.021 759.03 773.614 756.575 778.064 755.873C784.761 754.816 791.454 754.468 798.222 754.386C808.084 754.266 819.31 755.172 826.645 762.598C830.413 766.412 832.408 771.324 833.557 776.475C836.104 787.892 835.2 800.053 835.153 811.68Q835.039 831.407 835.133 851.133C826.644 848.557 819.969 844.452 813.049 838.977C799.257 846.9 786.416 849.96 770.404 849.09C758.431 848.439 743.928 844.613 735.664 835.299Q735.293 834.888 734.943 834.459Q734.593 834.029 734.265 833.583Q733.937 833.136 733.633 832.673Q733.328 832.211 733.047 831.733Q732.766 831.256 732.51 830.765Q732.254 830.274 732.023 829.77Q731.792 829.267 731.587 828.752Q731.382 828.237 731.203 827.713Q731.024 827.189 730.872 826.656Q730.72 826.124 730.595 825.584Q730.47 825.044 730.373 824.499Q730.276 823.953 730.206 823.404Q730.137 822.854 730.095 822.302Q730.054 821.749 730.041 821.196Q730.027 820.642 730.042 820.088Q730.056 819.534 730.099 818.982C730.726 811.603 735.454 805.131 740.953 800.465C755.127 788.437 779.654 781.909 797.912 785.286C803.759 786.368 810.891 789.864 816.229 790.283L816.976 789.581C817.701 786.903 816.987 784.033 816.204 781.43C815.081 777.698 812.305 775.234 808.909 773.506C791.047 764.417 767.862 772.209 750.205 778.005C747.923 778.754 743.612 780.507 741.382 779.146C740.807 778.795 740.888 778.516 740.733 777.919C741.537 774.485 744.195 771.93 747.041 770.065C747.805 759.657 747.458 749.177 747.213 738.756C732.271 737.522 717.119 738.088 702.141 738.122C682.899 738.165 663.797 737.96 644.556 738.767C643.799 746.388 643.072 757.895 644.356 765.359C644.588 766.709 644.803 767.528 645.956 768.296C649.681 768.26 654.148 764.922 657.447 763.196C669.761 756.752 686.965 755.513 700.132 759.804C707.442 762.186 714.502 766.606 717.967 773.719C720.418 778.752 720.551 784.103 718.576 789.326C715.511 797.435 707.34 803.643 699.258 806.241C695.736 807.373 692.012 807.931 688.668 809.561C688.521 809.633 688.376 809.71 688.229 809.785C695.109 821.3 706.205 830.794 714.508 841.345C709.873 844.511 705.291 847.604 700.431 850.422C690.734 842.363 663.268 813.099 657.042 802.507C658.953 797.442 661.574 792.803 664.373 788.184C666.743 788.755 669.14 789.255 671.564 789.529C680.019 790.483 689.826 789.717 696.616 784.027C699.788 781.368 702.872 777.263 703.134 773.026C703.303 770.31 702.194 767.621 700.405 765.602C697.923 762.799 693.37 761.454 689.747 761.255C679.176 760.675 669.628 767.693 662.262 774.492C646.463 789.076 643.318 797.722 643.533 818.575C643.644 829.319 644.177 840.203 643.742 850.934L624.394 841.816C623.717 807.435 624.832 773.032 623.937 738.639C608.595 737.472 592.864 738.144 577.476 738.13C551.913 738.107 526.414 737.944 500.852 738.602C500.361 739.431 499.938 740.22 499.575 741.113L499.829 766.712C499.858 771.383 499.447 776.362 500.126 780.972C500.463 789.323 500.773 804.875 500.066 812.946C500.72 821.387 498.836 833.332 504.53 840.324C506.179 842.349 508.389 843.646 511.006 843.873C514.838 844.206 518.468 843.077 521.35 840.514C529.77 833.027 529.881 819.445 530.383 809.101C538.49 812.519 546.019 817.092 553.62 821.49C551.725 825.838 548.466 830.193 545.416 833.814C537.816 842.836 527.371 848.077 515.609 848.947C505.985 849.658 496.366 847.257 489.034 840.773C485.416 837.574 482.486 833.279 481.283 828.572C479.209 820.454 480.42 810.374 480.4 801.964C480.35 781.033 481.095 759.79 479.779 738.91C468.086 737.346 455.967 738.064 444.187 738.084C427.192 738.112 410.213 737.898 393.228 738.627Q393.182 739.093 393.145 739.56C391.545 759.207 392.189 779.441 392.22 799.169C392.237 809.394 391.37 820.925 392.907 830.947C393.417 834.269 394.729 837.603 396.99 840.132C398.758 842.109 401.091 843.446 403.774 843.56C407.701 843.727 411.533 841.88 414.381 839.272C422.336 831.988 422.397 819.158 422.846 809.222C430.968 812.663 438.657 816.995 446.319 821.339C444.274 825.11 442.11 828.802 439.507 832.221C432.634 841.249 423.381 847.088 412.074 848.605C402.015 849.955 391.151 848.91 382.901 842.509C378.655 839.216 375.094 834.407 373.632 829.202C371.413 821.302 372.517 812.335 372.583 804.206L372.667 765.087C372.677 756.624 373.205 747.758 372.074 739.378L371.984 738.735Q278.817 737.322 185.643 738.119L127.549 738.346C117.268 738.4 106.202 737.667 96.0158 739.093C94.8898 748.487 94.8348 759.924 96.3331 769.269C103.325 766.942 109.564 762.482 116.659 760.058C129.218 755.768 145.164 755.622 157.219 761.599C163.354 764.64 168.441 769.499 170.51 776.19C172.194 781.639 171.52 787.304 168.796 792.291C165.363 798.574 157.896 804.675 151.013 806.746C147.332 807.854 143.415 807.966 139.693 809.066C139.505 809.122 139.318 809.181 139.13 809.239C144.547 820.31 157.926 831.033 165.604 841.484Q158.301 846.135 150.904 850.634C145.605 844.606 109.759 808.379 108.503 803.838C107.6 800.574 113.717 791.836 115.422 788.887C125.291 788.845 134.104 791.312 143.554 786.849C147.803 784.843 151.483 781.584 152.988 777.022C154.435 772.641 153.473 768.846 151.534 764.86C149.557 763.788 147.616 762.892 145.429 762.319C138.014 760.375 130.169 762.553 123.682 766.276C110.731 773.71 99.6887 787.364 95.8708 801.782C95.5269 802.128 95.0687 802.39 94.8391 802.821C93.4591 805.409 93.6276 833.086 93.6675 838.469C93.6919 841.755 94.884 847.047 93.6235 849.948C87.4865 847.626 81.5914 844.759 75.3814 842.596C74.3128 808.112 76.7259 773.45 75.0086 738.973C70.0892 738.214 64.8238 738.535 59.8397 738.268C59.6491 734.053 59.6165 729.857 59.6258 725.641C64.5549 725.529 69.5854 725.62 74.4741 724.948C74.1729 702.754 69.5069 680.786 57.1251 662.063C53.1118 655.994 48.336 650.618 44.0771 644.748C42.9474 635.762 43.9323 625.876 44.5039 616.857C46.659 582.853 51.3753 555.943 59.819 523.032C52.7098 520.216 33.5077 513.454 26.2338 514.65C24.699 515.73 24.1223 517.527 23.075 519.02C22.4919 519.85 22.2155 520.328 21.171 520.478C21.1096 520.334 21.0272 520.197 20.9869 520.046C20.1295 516.826 25.7442 504.831 27.4617 501.681L28.1484 502.142L27.6541 501.424L27.7935 501.285C28.4327 501.837 27.5357 507.953 28.1482 509.579C31.2341 512.201 55.1445 517.818 60.5654 519.307Q62.6544 512.755 64.975 506.281C60.6288 504.797 32.5241 494.654 30.5004 492.777C29.7439 492.076 29.4494 491.496 29.4823 490.466C31.9292 489.57 41.401 493.253 44.4473 494.011C47.0261 488.374 49.2992 482.554 51.6898 476.831C47.7225 475.331 40.8322 473.676 37.7525 470.773C37.0594 470.12 36.7195 469.625 36.7105 468.659L37.3939 468.338C42.8284 468.378 67.4741 478.378 73.9819 481.073Q77.2857 473.583 79.7359 465.771C77.9173 467.168 76.2683 468.261 74.1706 469.226C66.9645 467.8 51.7726 463.782 47.1677 457.829C45.8103 456.074 45.8437 454.078 46.1711 451.974C46.698 448.591 50.3941 438.763 53.3149 436.848C54.1454 436.303 53.7494 436.395 54.7009 436.603C55.5256 441.541 48.0195 448.469 50.2676 453.902C51.648 457.238 55.4384 458.285 58.477 459.571C60.6115 455.513 64.7589 443.905 68.3535 442.034C68.4115 442.143 68.4862 442.245 68.5274 442.361C69.6976 445.679 63.7641 457.89 62.2856 461.122Q62.724 461.39 63.168 461.648C65.9954 463.314 69.5063 465.57 72.9049 464.533C77.4345 463.151 78.5257 454.565 80.3829 450.842C80.9722 449.66 81.607 448.382 82.9202 447.925L83.6151 448.418C84.5355 450.262 84.5614 452.145 84.7258 454.163C89.2038 447.905 92.3868 440.534 95.797 433.649C92.1296 429.82 73.6125 407.434 72.3503 403.385C71.9318 402.042 72.1523 401.276 72.7591 400.053C78.6823 395.975 103.427 404.87 112.435 403.862C113.629 403.728 113.718 403.352 114.366 402.439L114.219 401.595C113.375 400.744 112.125 399.74 111.757 398.571C110.782 395.472 117.659 388.681 119.016 385.583C119.659 384.113 120.012 382.514 119.252 380.997C117.826 378.151 113.646 377.018 110.853 376.035C106.571 378.334 104.695 382.195 101.258 385.362C99.7856 386.719 98.1321 387.767 96.0643 387.619C93.4388 387.431 90.9022 384.947 89.2272 383.101C87.7823 381.508 87.0784 380.043 87.2496 377.854C87.785 371.009 94.826 363.568 99.6853 359.274C97.0209 366.318 92.3834 372.285 89.1634 379.072C92.0755 381.458 94.7874 383.256 98.2654 384.72C101.85 381.345 104.291 376.135 108.565 373.604C110.075 372.71 111.654 372.623 113.329 373.086C117.113 374.131 121.215 377.343 123.015 380.847C126.228 387.098 117.901 394.202 115.889 400.014L115.672 400.653C119.226 396.464 122.077 391.397 125.227 386.871C128.622 381.993 132.394 377.371 135.928 372.591C126.888 365.861 118.374 358.435 109.345 351.677C106.679 354.19 104.16 355.866 100.821 357.319C101.202 356.415 101.596 355.513 102.055 354.645C104.068 350.833 110.45 342.415 114.637 341.231L114.785 341.895C113.909 344.178 112.557 346.026 111.16 348.005C120.276 355.142 129.929 361.723 138.67 369.317C141.325 365.319 144.487 361.65 147.508 357.926C143.18 355.204 122.102 338.409 120.857 334.14C120.549 333.084 121.123 331.726 121.611 330.803C124.586 325.179 130.906 318.844 136.953 316.909Q138.598 317.375 140.217 317.925C143.064 318.921 145.649 321.539 146.8 324.315C148.316 327.969 144.66 333.733 143.145 337.044L143.821 337.819C150.165 340.531 158.378 338.492 165.143 338.895L165.558 338.924C170.553 334.721 174.827 329.734 179.548 325.235C185.157 319.889 191.211 315.022 196.814 309.66C191.784 304.941 175.773 286.016 175.039 279.739C174.898 278.538 175.131 278.076 175.846 277.153C182.619 274.325 194.489 285.358 201.141 287.419C202.397 287.809 203.335 287.945 204.504 287.325C206.178 281.716 191.271 272.276 190.852 265.654C190.806 264.918 191.045 264.895 191.496 264.403C191.847 264.415 192.026 264.394 192.382 264.562C195.956 266.251 208.888 284.587 211.384 288.823C212.635 290.945 213.498 293.093 214.288 295.42C222.542 290.376 231.644 284.602 238.642 277.895C234.832 280.084 229.282 284.1 224.767 283.423C220.409 282.769 216.728 278.416 214.197 275.073C210.956 270.793 206.024 263.489 207.016 257.86C207.528 254.951 210.137 252.527 212.438 250.913C215.632 248.672 220.125 246.42 224.11 247.273C227.264 247.949 229.746 250.28 231.478 252.899C236.696 260.79 241.069 268.142 239.203 277.947L252.87 270.349C250.045 261.215 244.289 252.667 240.077 244.079C238.913 241.705 236.774 237.576 237.67 234.992C238.655 234.059 239.398 233.655 240.786 233.635C242.768 233.606 244.171 234.504 245.545 235.831C252.898 240.473 257.442 248.441 264.65 253.314C265.443 253.498 265.669 253.557 266.487 253.363C268.788 246.817 261.8 231.87 262.709 223.988C262.859 222.683 263.373 221.282 264.562 220.57C265.439 220.047 266.77 219.899 267.741 220.205C272.268 221.631 282.589 245.842 285.146 251.385C291.053 249.453 296.841 247.081 302.179 243.882C299.783 234.476 297.078 228.266 288.317 223.11C285.685 221.561 282.773 220.091 280.579 217.928C279.537 216.9 278.232 215.521 278.23 214.033C278.354 213.996 278.474 213.941 278.602 213.923C282.025 213.446 292.493 221.541 295.787 223.808C296.845 219.113 298.07 209.461 300.22 205.668C300.751 204.732 301.043 204.201 302.13 203.94C302.302 204.147 302.518 204.326 302.648 204.562C303.912 206.853 302.081 211.802 301.526 214.185C299.068 224.744 300.094 232.68 305.902 241.914C312.369 239.89 318.576 237.147 324.923 234.786C332.618 231.924 340.473 229.355 348.283 226.819C358.183 223.605 368.229 220.337 378.298 217.7C381.503 216.861 384.956 216.821 388.086 215.922C388.953 215.673 389.27 215.66 389.741 214.861C384.691 214.096 374.928 218.906 371.031 216.71C368.472 215.268 367.132 211.14 366.274 208.453C364.971 204.379 360.699 187.77 362.464 184.354C365.537 185.961 367.543 201.36 368.513 205.169C369.2 207.868 370.192 210.44 371.239 213.015C377.291 212.105 384.474 210.274 390.557 210.517C391.271 211.967 391.094 214.034 391.151 215.634C396.019 215.612 400.538 214.93 405.28 213.847C402.959 213.057 400.693 212.304 398.521 211.149C398.211 207.971 394.638 203.363 395.61 200.278L395.278 201.391L396.2 200.682L396.312 201.171L397.009 200.936C397.887 203.558 398.626 206.233 401.252 207.616C404.113 209.123 407.261 208.076 410.096 207.07C412.277 206.297 414.388 205.344 416.493 204.386L416.957 204.165C417.501 202.79 417.644 202.01 417.495 200.532C417.481 200.394 417.463 200.256 417.447 200.118C418.018 200.854 418.55 201.614 419.087 202.375L419.267 206.773C417.434 208.407 415.628 210.032 413.919 211.798C418.943 211.785 426.075 211.925 430.767 210.071L431.283 208.895C430.357 201.891 429.917 194.759 429.116 187.725ZM382.028 487.521C372.084 489.306 363.095 492.869 357.118 501.447C352.18 508.535 349.915 517.736 351.505 526.274C353.036 534.489 358.347 542.467 365.253 547.151C371.895 551.655 378.575 552.371 386.409 552.185C394.542 551.599 402.291 548.127 407.705 541.949C413.224 535.651 416.589 526.67 416.04 518.266Q415.982 517.46 415.884 516.658Q415.786 515.856 415.648 515.06Q415.511 514.265 415.333 513.476Q415.156 512.688 414.94 511.91Q414.723 511.132 414.468 510.365Q414.213 509.599 413.92 508.846Q413.628 508.093 413.297 507.356Q412.967 506.618 412.601 505.898Q412.235 505.178 411.833 504.478Q411.431 503.777 410.995 503.097Q410.558 502.417 410.089 501.76Q409.619 501.102 409.117 500.469Q408.615 499.836 408.082 499.229Q407.55 498.622 406.987 498.042Q406.425 497.462 405.834 496.911Q405.243 496.36 404.626 495.839C398.48 490.596 390.184 487.146 382.028 487.521ZM779.513 799.934C765.515 801.244 750.697 807.869 741.578 818.775C739.414 821.364 737.233 824.61 737.623 828.152C737.866 830.368 739.115 832.211 740.909 833.49C747.988 838.536 766.185 837.08 774.335 835.55C786.346 832.512 796.794 828.307 807.29 821.625C810.045 819.872 813.287 817.931 815.001 815.058C815.861 813.616 816.249 812.066 815.735 810.422C815.036 808.188 812.857 806.695 810.851 805.727C802.026 801.463 789.287 799.404 779.513 799.934ZM556.736 382.456C550.514 383.812 544.955 386.053 541.348 391.66C538.609 395.917 537.528 401.334 538.744 406.276C539.967 411.242 543.341 415.558 547.749 418.117C551.589 420.346 555.568 420.902 559.93 420.847C565.252 420.087 569.967 418.246 573.342 413.84C576.471 409.754 577.639 404.373 576.949 399.315C576.245 394.161 573.673 389.382 569.453 386.278C565.711 383.525 561.311 382.491 556.736 382.456ZM201.867 520.711C196.057 522.843 191.36 525.227 188.53 531.119C186.291 535.779 185.923 541.003 187.695 545.869Q187.866 546.344 188.061 546.809Q188.256 547.274 188.475 547.729Q188.694 548.183 188.936 548.626Q189.178 549.068 189.443 549.498Q189.708 549.927 189.995 550.342Q190.282 550.757 190.589 551.157Q190.897 551.557 191.226 551.94Q191.554 552.323 191.902 552.688Q192.249 553.054 192.615 553.401Q192.981 553.748 193.365 554.076Q193.749 554.403 194.149 554.711Q194.549 555.018 194.965 555.304Q195.38 555.59 195.81 555.854Q196.24 556.118 196.683 556.36Q197.126 556.601 197.581 556.82Q198.035 557.038 198.501 557.232C201.669 558.569 205.032 559.146 208.438 558.639C214.474 556.412 220.227 554.307 223.111 548.014C225.189 543.48 225.195 537.808 223.456 533.169C221.609 528.244 217.755 524.432 212.978 522.309C209.427 520.731 205.711 520.191 201.867 520.711ZM499.661 571.39C493.751 573.437 488.734 576.094 485.853 582.002C483.625 586.572 483.263 591.809 485.039 596.589C486.772 601.255 490.391 605.308 494.97 607.315C498.821 609.002 502.734 608.839 506.827 608.689C511.728 607.683 515.802 605.469 518.599 601.197C521.524 596.731 522.508 590.837 521.216 585.659C519.971 580.667 516.751 576.545 512.28 574.022C508.422 571.846 504.049 571.078 499.661 571.39ZM166.246 346.123C158.789 351.559 153.404 357.008 148.578 364.877C157.132 371.602 164.831 379.354 173.483 386.023C175.358 384.602 176.919 383.246 178.47 381.458C183.207 376.217 187.068 370.823 189.377 364.114C186.55 360.725 183.361 358.951 179.355 357.305C174.002 354.067 173.018 349.148 166.246 346.123ZM654.836 500.118C649.284 502.191 644.517 504.758 641.811 510.363C639.971 514.173 639.649 518.367 641.202 522.333Q641.515 523.121 641.908 523.873Q642.3 524.625 642.767 525.333Q643.234 526.041 643.771 526.698Q644.308 527.354 644.909 527.953Q645.51 528.551 646.169 529.084Q646.829 529.618 647.539 530.081Q648.249 530.545 649.003 530.933Q649.757 531.322 650.547 531.631C653.193 532.694 655.863 532.914 658.691 532.839C663.517 532.078 667.497 530.73 670.505 526.574C673.162 522.903 673.951 518.173 673.081 513.766Q673.001 513.342 672.9 512.922Q672.798 512.503 672.675 512.089Q672.552 511.676 672.408 511.269Q672.263 510.862 672.098 510.463Q671.933 510.065 671.747 509.675Q671.562 509.285 671.356 508.906Q671.151 508.526 670.926 508.158Q670.701 507.79 670.457 507.433Q670.214 507.077 669.952 506.734Q669.69 506.391 669.411 506.062Q669.131 505.733 668.836 505.419Q668.54 505.104 668.228 504.806Q667.916 504.507 667.589 504.226Q667.263 503.944 666.922 503.679Q666.581 503.414 666.227 503.168Q665.872 502.921 665.506 502.693C662.23 500.672 658.644 499.944 654.836 500.118ZM621.348 339.078C616.851 340.922 613.559 343.361 611.644 348.023C610.018 351.979 610.25 356.065 612.041 359.916C613.459 362.966 615.886 365.692 619.151 366.759C621.604 367.561 624.257 367.884 626.737 367.089C631.399 364.402 635.88 361.571 637.275 355.969Q637.428 355.331 637.518 354.682Q637.608 354.032 637.634 353.377Q637.66 352.722 637.623 352.067Q637.585 351.412 637.484 350.765Q637.383 350.117 637.22 349.482Q637.056 348.847 636.831 348.231Q636.607 347.615 636.323 347.023Q636.04 346.432 635.7 345.871C633.647 342.497 629.772 339.98 625.899 339.253C624.452 338.982 622.816 339.028 621.348 339.078ZM221.794 250.277C217.149 251.861 212.484 253.485 210.146 258.168Q209.871 258.725 209.613 259.291C212.373 265.307 217.677 275.743 223.115 279.659C223.629 279.734 224.19 279.868 224.708 279.851C228.379 278.305 234.37 276.365 236.484 272.772C237.338 268.013 232.534 261.114 229.913 257.376C228.25 255.004 225.656 251.081 222.713 250.389C222.272 250.285 222.193 250.296 221.794 250.277ZM136.173 320.135C132.513 322.602 127.199 326.436 126.168 330.954C125.723 332.903 126.347 334.739 127.499 336.314C131.852 342.264 143.983 348.842 149.439 355.482C151.842 353.179 154.301 350.913 156.631 348.537Q160.087 345.125 163.365 341.543C154.236 343.956 144.708 342.729 135.399 342.263L135.584 341.69C137.322 336.481 146.061 329.931 143.087 324.08C142.136 322.209 138.609 320.718 136.721 320.215C136.542 320.167 136.355 320.161 136.173 320.135ZM204.845 491.31C200.929 492.887 197.852 494.46 196.037 498.559Q195.79 499.128 195.602 499.72Q195.414 500.312 195.288 500.92Q195.162 501.528 195.099 502.145Q195.036 502.763 195.037 503.384Q195.038 504.005 195.103 504.622Q195.167 505.24 195.295 505.847Q195.422 506.455 195.612 507.046Q195.801 507.637 196.05 508.206C197.286 510.986 199.541 512.783 202.358 513.818C204.105 514.46 205.687 514.549 207.524 514.512C211.299 512.905 214.357 511.242 216.043 507.235Q216.256 506.717 216.418 506.18Q216.579 505.643 216.687 505.093Q216.795 504.543 216.848 503.985Q216.901 503.427 216.899 502.866Q216.897 502.306 216.84 501.748Q216.783 501.191 216.671 500.641Q216.559 500.092 216.394 499.556Q216.228 499.021 216.011 498.504C214.796 495.609 212.413 493.464 209.502 492.34C208 491.76 206.454 491.373 204.845 491.31ZM55.2185 478.037C52.8685 483.793 50.3054 489.558 48.4961 495.508C54.2793 498.21 60.4049 500.1 66.1505 502.824C68.4594 496.663 70.5464 490.41 72.7035 484.194C67.4377 482.341 59.9656 480.541 55.2185 478.037ZM137.614 380.118C131.575 385.694 127.192 392.122 123.43 399.392C125.483 399.807 128.474 400.794 130.406 399.655C131.808 398.828 132.633 396.8 133.289 395.394C137.899 398.849 142.289 402.583 146.991 405.914C149.587 407.945 152.277 409.92 154.709 412.146C156.315 409.808 157.996 407.493 159.513 405.098C152.05 400.46 144.196 395.968 138.623 389.042C139.335 386.827 140.256 384.206 139.005 381.986C138.629 381.317 138.104 380.706 137.614 380.118ZM245.545 235.831C245.639 236.081 245.727 236.333 245.826 236.581C246.291 237.748 247.132 238.574 247.984 239.469L248.115 240.256C247.494 240.621 247.148 240.763 246.426 240.96L241.975 237.567C245.716 248.428 251.003 258.307 256.374 268.424C259.887 266.327 264.507 264.149 266.915 260.783L266.923 260.124L266.273 259.466C266.285 256.444 263.793 256.762 263.057 254.45C263.522 253.861 264.001 253.669 264.65 253.314C257.442 248.441 252.898 240.473 245.545 235.831ZM180.358 281.977C186.067 290.87 192.879 299.23 199.363 307.568L206.875 301.93C208.977 300.396 210.969 298.873 212.878 297.097C208.917 295.408 204.937 293.736 201.142 291.694C194.339 288.034 188.134 283.306 180.358 281.977ZM266.528 225.047C266.394 236.044 268.985 248.285 271.745 258.922L279.613 255.465C280.702 254.698 281.239 254.451 281.836 253.237C281.206 248.035 271.473 228.76 267.412 225.599C267.068 225.331 266.933 225.277 266.528 225.047ZM433.501 201.897C433.582 202.019 433.668 202.138 433.744 202.263C434.096 202.842 434.276 203.412 434.483 204.051C437.088 204.697 448.315 204.204 450.466 202.661C450.903 202.348 451.148 202.022 451.485 201.628C452.009 199.488 452.354 197.623 452.325 195.395C451.86 194.03 451.498 192.327 450.394 191.36C446.655 190.435 437.422 189.988 433.92 191.686C433.345 191.964 433.086 192.883 432.928 193.48C432.318 195.782 432.934 199.58 433.501 201.897ZM100.471 406.283C96.8531 411.118 91.5624 416.465 92.4387 423.015C92.7084 425.031 93.7088 427.515 95.4765 428.69C96.1874 429.162 97.0514 429.168 97.8697 429.239C98.5711 428.762 98.8745 428.342 99.3136 427.621C103.014 421.309 106.996 415.04 110.388 408.562C107.099 407.719 103.824 406.836 100.471 406.283ZM116.256 409.887L113.126 413.659C119.141 419.763 132.773 427.476 140.331 432.469L140.94 432.424L144.028 427.195C135.096 421.058 126.111 414.476 116.256 409.887ZM121.527 400.67C120.782 401.989 120.001 403.259 119.533 404.708C126.205 410.273 139.057 419.189 146.784 423.339C147.649 421.999 148.534 420.852 148.758 419.246C148.038 415.918 142.105 412.728 139.295 410.917C133.54 407.207 127.531 403.953 121.527 400.67ZM76.7158 403.327C79.2996 408.963 83.5518 414.304 88.4768 418.083Q90.2186 415.693 91.9318 413.282C93.308 410.872 94.6579 408.467 95.8963 405.983C89.4991 404.29 83.3407 403.297 76.7158 403.327ZM499.575 741.113C499.05 747.201 498.162 810.275 500.066 812.946C500.773 804.875 500.463 789.323 500.126 780.972C499.447 776.362 499.858 771.383 499.829 766.712L499.575 741.113ZM762.277 757.914C763.147 751.818 761.707 745.418 762.445 739.207L761.566 739.283C760.534 741.074 760.985 753.936 761.473 756.43C761.597 757.062 761.893 757.43 762.277 757.914Z"/>
	<path d="M762.277 757.914C761.893 757.43 761.597 757.062 761.473 756.43C760.985 753.936 760.534 741.074 761.566 739.283L762.445 739.207C761.707 745.418 763.147 751.818 762.277 757.914Z"/>
	<path d="M499.575 741.113L499.829 766.712C499.858 771.383 499.447 776.362 500.126 780.972C500.463 789.323 500.773 804.875 500.066 812.946C498.162 810.275 499.05 747.201 499.575 741.113Z"/>
	<path d="M245.545 235.831C252.898 240.473 257.442 248.441 264.65 253.314C264.001 253.669 263.522 253.861 263.057 254.45C263.793 256.762 266.285 256.444 266.273 259.466C259.562 253.395 253.249 246.91 246.426 240.96C247.148 240.763 247.494 240.621 248.115 240.256L247.984 239.469C247.132 238.574 246.291 237.748 245.826 236.581C245.727 236.333 245.639 236.081 245.545 235.831Z"/>
	<path d="M178.035 364.348C178.692 364.721 179.156 365.118 179.721 365.613C180.257 367.144 180.133 368.303 179.448 369.74C178.231 372.295 175.859 374.506 173.185 375.398L169.179 373.423C171.774 369.932 174.638 367.06 178.035 364.348Z"/>
	<path d="M166.386 355.693C167.684 355.769 168.87 355.992 169.811 356.958C170.524 357.69 170.628 358.588 170.513 359.574C170.157 362.644 167.155 365.369 164.878 367.11C163.592 366.75 162.045 366.296 161.129 365.241C160.419 364.421 159.965 363.488 160.164 362.372C160.698 359.376 164.063 357.272 166.386 355.693Z"/>
</svg>
