<?xml version="1.0" standalone="no"?>
<!DOCTYPE svg PUBLIC "-//W3C//DTD SVG 20010904//EN"
 "http://www.w3.org/TR/2001/REC-SVG-20010904/DTD/svg10.dtd">
<svg version="1.0" xmlns="http://www.w3.org/2000/svg"
 width="268.000000pt" height="358.000000pt" viewBox="0 0 268.000000 358.000000"
 preserveAspectRatio="xMidYMid meet">

<g transform="translate(0.000000,358.000000) scale(0.100000,-0.100000)"
fill="#000000" stroke="none">
<path d="M1092 3445 l-61 -124 -90 -3 -90 -3 75 -115 c125 -189 214 -383 214
-466 0 -43 -4 -50 -69 -114 -86 -86 -106 -131 -99 -231 5 -65 9 -76 61 -152
78 -116 83 -128 67 -179 -18 -63 -106 -234 -132 -257 -47 -44 -89 -19 -108 64
-19 86 -40 462 -28 524 6 33 37 106 79 186 38 73 69 135 69 138 0 4 -18 16
-39 26 -98 51 -186 201 -235 403 -17 71 -34 128 -37 128 -3 0 -19 -20 -37 -45
-17 -25 -39 -45 -47 -45 -9 0 -43 12 -76 26 -34 14 -75 24 -93 22 -29 -3 -35
-10 -93 -129 -55 -112 -66 -128 -100 -144 -38 -18 -38 -18 -125 12 -48 17 -89
28 -92 26 -2 -3 4 -21 14 -41 44 -85 60 -138 76 -245 9 -61 18 -114 20 -116 2
-2 27 18 56 45 109 102 192 150 281 160 117 14 171 -20 147 -92 -13 -39 -76
-106 -122 -130 -37 -19 -37 -51 -1 -60 53 -13 85 -35 99 -70 12 -28 18 -143
29 -527 16 -543 20 -579 79 -642 40 -42 88 -55 204 -55 l92 0 0 -82 c0 -46 -9
-168 -21 -271 -25 -223 -21 -266 38 -353 21 -31 56 -84 78 -118 l40 -61 0
-142 c0 -135 1 -144 23 -165 19 -19 33 -23 80 -22 102 3 270 72 328 136 55 61
49 90 -45 229 -69 102 -122 207 -121 242 1 22 24 43 97 90 122 78 123 100 9
269 -46 69 -93 152 -106 184 -26 70 -37 149 -22 158 6 3 148 -139 315 -316
167 -178 316 -334 330 -346 57 -53 88 -3 68 111 -22 126 -24 244 -7 349 9 54
16 123 16 154 0 75 -31 108 -109 117 -81 10 -88 21 -72 109 23 121 24 138 11
153 -17 20 -84 19 -101 -1 -30 -36 -128 -60 -143 -35 -9 15 80 184 121 230
l38 43 68 -26 c91 -34 214 -99 260 -137 l37 -30 0 -538 c0 -404 3 -540 12
-549 19 -19 113 -15 129 5 11 13 14 117 16 565 1 471 4 552 17 566 8 10 26 41
41 70 24 47 27 64 24 130 -3 66 0 82 19 112 43 68 21 184 -55 299 l-43 64 0
103 0 104 140 0 140 0 0 228 c0 210 2 229 20 257 11 17 20 36 20 43 0 17 -102
201 -112 202 -3 0 -32 -46 -63 -101 l-56 -101 25 -39 c24 -36 26 -47 26 -159
l0 -120 -75 0 -75 0 0 123 c0 104 3 127 20 155 11 18 20 37 20 42 0 13 -104
199 -112 200 -6 0 -33 -43 -88 -143 l-31 -58 26 -44 c24 -42 25 -51 23 -157
l-3 -113 -75 0 -75 0 -3 114 c-3 108 -1 116 23 152 14 21 25 43 25 48 0 7 -98
186 -114 208 -3 4 -116 -199 -116 -208 0 -6 11 -27 25 -47 25 -36 25 -38 25
-259 l0 -222 138 -3 137 -3 0 -70 0 -70 -70 -7 c-70 -6 -89 -13 -238 -82 -84
-39 -141 -47 -151 -20 -9 24 18 61 63 83 44 23 101 69 101 81 0 5 -45 44 -100
87 -99 77 -101 79 -95 113 3 19 10 100 14 180 10 182 38 269 118 367 l34 42
-92 3 -91 3 -52 117 c-28 65 -53 118 -56 118 -3 0 -35 -53 -71 -118 l-66 -117
-74 -3 -75 -3 -63 123 c-35 68 -65 124 -66 126 -1 1 -29 -54 -63 -123z m166
-300 c55 -46 67 -126 22 -140 -48 -15 -80 32 -80 116 0 57 12 62 58 24z m317
15 c12 -19 -8 -112 -30 -138 -27 -31 -71 -25 -81 12 -13 55 85 168 111 126z
m-85 -404 c0 -30 -81 -206 -95 -206 -14 0 -95 176 -95 206 0 2 43 4 95 4 52 0
95 -2 95 -4z m640 -531 c51 -26 61 -47 58 -121 l-3 -69 -60 3 c-102 4 -235 86
-235 144 0 55 159 84 240 43z"/>
</g>
</svg>
